# xmcd
#
# Track frame offsets:
# 150
# 26115
# 43136
# 63347
# 84321
# 116906
# 144228
# 164965
# 184663
# 201792
# 222766
# 243516
# 261766
# 289651
# 310703
#
# Disc length: 4399 seconds
#
#
# Revision: 3
# Processed by: cddbd v1.5.2PL0 Copyright (c) Steve Scherf et al.
# Submitted via: FreeRIP 2.70 
#
DISCID=df112d0f
DTITLE=Air Supply - Now and Forever: Greatest hits live
DYEAR=1996
DGENRE=Pop
TTITLE0=Making love out of nothing at all
TTITLE1=Chances
TTITLE2=Lost in love
TTITLE3=Here I am (Just when I thought I was over you)
TTITLE4=Sweet dreams
TTITLE5=Someone
TTITLE6=I want to give it all
TTITLE7=Always
TTITLE8=Unchained melody
TTITLE9=Without you
TTITLE10=The one that you love
TTITLE11=Goodbye
TTITLE12=All out of love
TTITLE13=The way I feel
TTITLE14=Now and forever
EXTD=
EXTT0=
EXTT1=
EXTT2=
EXTT3=
EXTT4=
EXTT5=
EXTT6=
EXTT7=
EXTT8=
EXTT9=
EXTT10=
EXTT11=
EXTT12=
EXTT13=
EXTT14=
PLAYORDER=
